#!OML:ASF E:/inclinewalkrobotboard/Project1/Captureday1/Session1/subject1.ASF
:FULLY-SPECIFIED
:DEGREES
138
root 0 0 0 -7.232891765514907 16.442480014856894 15.718966828956225
lowerback -2.4037810377698685 -5.36852673179312 -8.86254324758807
upperback -6.985076828840892 -6.724836804337601 5.333343616163639
thorax -6.189536660883692 -1.950547260494113 10.658948434183493
lowerneck -6.127570118541978 -8.14775372178358 -6.252376894133717
upperneck 29.859543722979286 -10.331526415671584 1.2395051251253757
head 11.050664518239916 -5.31957516946297 0.11368571496712565
rclavicle -1.0620387829401161E-14 7.05295027464538E-15
rhumerus 151.82105341437023 10.988341126387866 -191.38257506551616
rradius 20.413765050206038
rwrist 78.52374423076134
rhand -16.228130887529755 9.71181008675494
rfingers 7.12501999999999
rthumb 9.962415473577456 -19.742674356303823
lclavicle 3.785452998446737E-15 2.0164627979830995E-15
lhumerus 63.260563457941785 29.039250120520393 23.319763238558426
lradius 42.912529022568336
lwrist -20.231291837496762
lhand -15.840350539389975 12.952898542395745
lfingers 7.125020000000005
lthumb 10.31945468976999 42.7597442139632
rfemur 160.8238779082547 -216.26528896361123 -183.66306410470483
rtibia 69.51602875350534
rfoot -52.31035050483031 -23.237149446467054
rtoes 49.5014437892321
lfemur -85.952542116018 16.25015708128761 -64.62043232051735
ltibia 65.44751641597863
lfoot 2.6389401573487206 37.5782200836235
ltoes 0.7021317232104263
139
root 0 0 0 -6.461849114145153 16.461509807959384 15.199872879426762
lowerback -2.8782298691702297 -5.384859189471747 -8.709622406539406
upperback -7.21033445096802 -6.751453442801445 5.488410814623856
thorax -6.135246115745238 -1.9879932642440006 10.748208166126823
lowerneck -6.050691744886688 -8.23058027359742 -6.40116634897161
upperneck 29.89776693499262 -10.46352820590411 1.3936489276575625
head 11.070302626375488 -5.376012053772966 0.16807004881043375
rclavicle -9.991465932578682E-15 6.930174244193275E-15
rhumerus 152.5935944335909 10.768271814870012 -189.9592177206471
rradius 21.55856501627602
rwrist 76.68042951431146
rhand -16.19882320496761 9.738205774845298
rfingers 7.1250199999999895
rthumb 9.993722166285954 -19.701435124623426
lclavicle 4.034110357932445E-15 1.7652707843532615E-15
lhumerus 64.10519010714636 28.41232110264352 23.109181709002964
lradius 46.91036640620262
lwrist -19.22498887477122
lhand -13.72421362020252 11.565996216839308
lfingers 7.125020000000008
lthumb 12.351744861201684 41.050572681482215
rfemur 161.04985998186498 -216.23056293517317 -183.67881797630224
rtibia 70.24212808315104
rfoot -50.35069732197023 -24.111596301826154
rtoes 49.51118287066835
lfemur -86.19840781436162 16.386567146114924 -64.37182382766571
ltibia 65.36692946083988
lfoot 1.751008018733927 37.75464785077314
ltoes 1.273723183709098
140
root 0 0 0 -4.686950502145294 16.651513900264224 13.975311967295665
lowerback -3.8424760563023668 -5.393311425318917 -8.365105418350776
upperback -7.69341159440191 -6.777533262679027 5.806349025859266
thorax -6.044597505647515 -2.0585194996716485 10.914847182326685
lowerneck -5.909448756759661 -8.384410661638864 -6.7138871848555794
upperneck 29.89680105631239 -10.70879581227194 1.714301098098563
head 11.085450979641 -5.479216609007436 0.2833065637520865
rclavicle -8.875012834059995E-15 6.585613766192162E-15
rhumerus 153.4702032107067 10.259541094738417 -188.15910743580022
rradius 22.858225372999414
rwrist 74.3294162042051
rhand -16.22731060971401 9.749029098116962
rfingers 7.125019999999989
rthumb 9.970644954484223 -19.694677294700096
lclavicle 4.15980067363873E-15 9.502302235330826E-16
lhumerus 64.51564725122456 28.030135362180054 22.522638758369105
lradius 50.81247483885211
lwrist -18.272643132089527
lhand -11.218009861196858 10.19323832726593
lfingers 7.1250200000000135
lthumb 14.754644843348665 39.307477504551365
rfemur 161.28946522979336 -216.21858454083792 -183.81150929514644
rtibia 70.77385937168422
rfoot -48.578614747362984 -25.048944775986783
rtoes 49.7064998191794
lfemur -86.60130069730064 16.690849415755164 -63.73949228552897
ltibia 65.32626179238757
lfoot 0.04059077895997376 37.94572179928715
ltoes 2.3137017058782465
141
root 0 0 0 -3.0637617575344507 17.04148906480219 12.841763882102073
lowerback -4.642205479415483 -5.384022017484336 -8.05548401570275
upperback -8.11157771475812 -6.77928622978944 6.078062914701366
thorax -5.9812002485728115 -2.1124711070765274 11.048634438736599
lowerneck -5.784260475763895 -8.505990848395674 -6.974756883192809
upperneck 29.87768455969813 -10.89862204072242 1.959918802813205
head 11.090482030005516 -5.559523671995226 0.3733965834534255
rclavicle -8.316545965696902E-15 6.328264221663781E-15
rhumerus 153.8322776521756 9.87687362986322 -187.11635754467028
rradius 23.473760116604304
rwrist 73.05280641062672
rhand -16.2602823986848 9.73382740648526
rfingers 7.1250199999999895
rthumb 9.940641250110792 -19.72083512621804
lclavicle 4.167973826218874E-15 3.163193090278235E-16
lhumerus 64.92502515140593 27.863087713778715 21.911978595980166
lradius 52.20538711405277
lwrist -17.95922527667038
lhand -10.056577310701275 9.740084792301067
lfingers 7.125020000000016
lthumb 15.866429542395384 38.681582837327845
rfemur 161.8071063587766 -216.53740548429872 -184.16174710819308
rtibia 71.00204233333876
rfoot -47.75442872730177 -25.37003495826879
rtoes 49.682619015580286
lfemur -86.86833639248734 16.951785497873946 -63.158405613812185
ltibia 65.3492082708201
lfoot -1.3759484467154302 38.02886206786643
ltoes 3.127415589345116
142
root 0 0 0 -1.1902591042871755 17.867941168403316 11.550606124844757
lowerback -5.487821454549566 -5.353111621447523 -7.716343510822027
upperback -8.56622778574393 -6.751960715265552 6.372909536948239
thorax -5.919472467234623 -2.157795837436331 11.190759390788745
lowerneck -5.617036951778912 -8.631838393871034 -7.23162575615482
upperneck 29.910743263717887 -11.085845903185556 2.146448003832986
head 11.10750223111342 -5.641780306093721 0.44488613598625837
rclavicle -7.836577806553073E-15 6.088103240639562E-15
rhumerus 154.3180464474857 9.530627129446323 -186.4992541965294
rradius 23.826845076877323
rwrist 72.10345310196473
rhand -16.282578071148592 9.659842080930838
rfingers 7.1250199999999895
rthumb 9.91999988560999 -19.808902963373278
lclavicle 4.086065554154456E-15 -3.3262662441140116E-16
lhumerus 65.85339347931296 27.87954936113901 21.307999292660853
lradius 52.94094662046355
lwrist -17.746211029059268
lhand -9.203264682148042 9.537532070047035
lfingers 7.125020000000016
lthumb 16.68345254208638 38.357940437439936
rfemur 162.51327268307608 -217.03179125862488 -184.69796620528055
rtibia 71.1150699680367
rfoot -47.087376050434756 -25.58219157827124
rtoes 49.684920172901805
lfemur -87.09361456326221 17.26759230287252 -62.47682354788491
ltibia 65.45987724814802
lfoot -2.892134212920798 38.04012787154934
ltoes 3.9695626353931353
143
root 0 0 0 0.9296525765832051 19.433140409757005 10.111211090698843
lowerback -6.3465750880204155 -5.29266254043266 -7.352965979255267
upperback -9.039932344090094 -6.681791147232589 6.689307604689747
thorax -5.8561476738907094 -2.1864087252002653 11.340906976315537
lowerneck -5.3814201126244345 -8.762274154122816 -7.459850066331283
upperneck 30.065581469359973 -11.262026426688067 2.201502382849274
head 11.155247607472786 -5.725896929232875 0.47320069838925927
rclavicle -7.404140154828387E-15 5.8486791290337814E-15
rhumerus 155.07766764549078 9.214330277226274 -186.38705272244292
rradius 23.931435376155466
rwrist 71.48711601328279
rhand -16.294728222699515 9.524054358518546
rfingers 7.12501999999999
rthumb 9.907966989022002 -19.961715608445033
lclavicle 3.897331287344896E-15 -9.913554903813525E-16
lhumerus 67.14028497260482 28.050665274128985 20.76315755693254
lradius 53.31429247516727
lwrist -17.563113473540735
lhand -8.536954859255408 9.481864416520422
lfingers 7.125020000000016
lthumb 17.322306925278806 38.21510298445462
rfemur 163.2719230873636 -217.59716359537333 -185.32007341540964
rtibia 71.1311782936635
rfoot -46.58547294683774 -25.68775236541708
rtoes 49.76033825915098
lfemur -87.28837939317056 17.62450680537088 -61.74383679612349
ltibia 65.71519120672724
lfoot -4.45880508125909 37.978267131082845
ltoes 4.7956569938065865
144
root 0 0 0 3.3946149099913256 22.099782621025387 8.437224322885092
lowerback -7.233804386642191 -5.196216478343533 -6.938264268041272
upperback -9.541430761807659 -6.558185578190453 7.049628675157193
thorax -5.783336551904932 -2.1971137651197408 11.507497161987128
lowerneck -5.045210249669416 -8.910170159833076 -7.662679356477093
upperneck 30.393817672009703 -11.435894175615118 2.076320857107611
head 11.24836202642247 -5.819488286493691 0.44239747031755594
rclavicle -6.941090326181308E-15 5.6020603194371644E-15
rhumerus 156.20694161098916 8.899922212490829 -186.74374676511115
rradius 23.835466398049967
rwrist 71.20881689157358
rhand -16.308701711554054 9.337413916105907
rfingers 7.125019999999992
rthumb 9.893325140425855 -20.170105180248115
lclavicle 3.679579071429751E-15 -1.6554835245248655E-15
lhumerus 68.65923369759338 28.345630479988934 20.30043702053927
lradius 53.47848595997287
lwrist -17.38578247911939
lhand -8.009929964167174 9.516702190714565
lfingers 7.125020000000015
lthumb 17.828739594002503 38.18867484606381
rfemur 163.9318268522879 -218.12326388808376 -185.93754791899886
rtibia 71.0302105002375
rfoot -46.29044477450098 -25.70800740222336
rtoes 49.98642254034047
lfemur -87.45706849839257 18.017991759276537 -60.992385878670994
ltibia 66.15533471903315
lfoot -6.024189412118972 37.83976296433169
ltoes 5.5751684729638
145
root 0 0 0 7.774102329379463 28.265274226674517 5.4135609064421715
lowerback -8.64139339291949 -4.9903989377451605 -6.183431616475682
upperback -10.358454934977262 -6.2813172591400255 7.697751009437123
thorax -5.651770054997376 -2.1889515755161746 11.795290160130165
lowerneck -4.349124921747097 -9.18502511408993 -7.953329015446597
upperneck 31.183364119323706 -11.717059370018317 1.571514981382053
head 11.466019279925042 -5.989879703375756 0.29276094455566304
rclavicle -6.127454335909268E-15 5.197808124078199E-15
rhumerus 158.46220345016894 8.382074554058878 -188.06798786190186
rradius 23.29177212198683
rwrist 71.57675413161421
rhand -16.369327075205568 8.992283892681153
rfingers 7.125019999999994
rthumb 9.831982700887842 -20.56435331046455
lclavicle 3.3193550699132837E-15 -2.6927907007359386E-15
lhumerus 71.4398394225515 29.055577698380688 19.75675941789116
lradius 53.441980539420214
lwrist -17.111336032957073
lhand -7.459974224870137 9.687854425016155
lfingers 7.1250200000000135
lthumb 18.359834124042077 38.31449643287637
rfemur 164.43602061017438 -218.60494095428112 -186.7015033023002
rtibia 70.57875700706205
rfoot -46.277048510941384 -25.679307221931325
rtoes 50.84115721165889
lfemur -87.64585192867551 18.700918777184405 -59.846545078440116
ltibia 67.21900163786907
lfoot -8.153747123035114 37.43397457592572
ltoes 6.572958244826362
